# xmcd CD database file
#
# Track frame offsets:
#	150
#	8422
#	55974
#	66580
#	77086
#	93069
#	139053
#	142607
#	162547
#	183474
#	207779
#	225119
#	229365
#	267957
#	280930
#	297035
#	316032
#
# Disc length: 4685 seconds
#
# Revision: 0
# Processed by: cddbd v1.5.2PL0 Copyright (c) Steve Scherf et al.
# Submitted via: CDex 1.51
#
DISCID=e0124b11
DTITLE=Various Artist - Jazz At The Philharmonic - Seattle 1956: Disc 1
DYEAR=2011
DGENRE=Jazz
TTITLE0=Spoken Introduction: Norman Granz
TTITLE1=Up Tempo Blues
TTITLE2=These Foolish Things
TTITLE3=I Can't Get Started With You
TTITLE4=Moonglow
TTITLE5=Noisy Norman Blues
TTITLE6=Spoken Introduction: Norman Granz
TTITLE7=D and E Blues
TTITLE8=Bess, Oh Where's My Bess
TTITLE9=Django
TTITLE10=Bluesology
TTITLE11=Spoken Introduction: Norman Granz
TTITLE12=Groovin' High
TTITLE13=The Nearness Of You
TTITLE14=Round About Midnight
TTITLE15=We'll Be Together Again
TTITLE16=Shaw 'Nuff
EXTD=YEAR: 2011
EXTT0=
EXTT1=
EXTT2=
EXTT3=
EXTT4=
EXTT5=
EXTT6=
EXTT7=
EXTT8=
EXTT9=
EXTT10=
EXTT11=
EXTT12=
EXTT13=
EXTT14=
EXTT15=
EXTT16=
PLAYORDER=
